<svg width="96" height="96" viewBox="0 0 96 96" fill="none" xmlns="http://www.w3.org/2000/svg">
<rect width="96" height="96" fill="#286C2E"/>
<g clip-path="url(#clip0_0_1)">
<path d="M55 35C57.2 35 59 33.2 59 31C59 28.8 57.2 27 55 27C52.8 27 51 28.8 51 31C51 33.2 52.8 35 55 35ZM34 48C28.4 48 24 52.4 24 58C24 63.6 28.4 68 34 68C39.6 68 44 63.6 44 58C44 52.4 39.6 48 34 48ZM34 65C30.2 65 27 61.8 27 58C27 54.2 30.2 51 34 51C37.8 51 41 54.2 41 58C41 61.8 37.8 65 34 65ZM45.6 45L50.4 40.2L52 41.8C54.6 44.4 58 46 62.2 46V42C59.2 42 56.8 40.8 55 39L51.2 35.2C50.2 34.4 49.2 34 48 34C46.8 34 45.8 34.4 45.2 35.2L39.6 40.8C38.8 41.6 38.4 42.6 38.4 43.6C38.4 44.8 38.8 45.8 39.6 46.4L46 52V62H50V49.6L45.6 45ZM62 48C56.4 48 52 52.4 52 58C52 63.6 56.4 68 62 68C67.6 68 72 63.6 72 58C72 52.4 67.6 48 62 48ZM62 65C58.2 65 55 61.8 55 58C55 54.2 58.2 51 62 51C65.8 51 69 54.2 69 58C69 61.8 65.8 65 62 65Z" fill="#D4F7D7"/>
</g>
<defs>
<clipPath id="clip0_0_1">
<rect width="96" height="96" fill="white"/>
</clipPath>
</defs>
</svg>
